<?xml version="1.0" encoding="utf-8"?>
<!-- Generator: Adobe Illustrator 19.2.1, SVG Export Plug-In . SVG Version: 6.00 Build 0)  -->
<svg version="1.1" id="Layer_1" xmlns="http://www.w3.org/2000/svg" xmlns:xlink="http://www.w3.org/1999/xlink" x="0px" y="0px"
	 viewBox="0 0 542.2 170.5" style="enable-background:new 0 0 542.2 170.5;" xml:space="preserve">
<style type="text/css">
	.st0{fill:#212121;}
</style>
<g>
	<path class="st0" d="M26.4,142.9V29.6c0-0.6,0.1-1,0.3-1.2c0.2-0.2,0.6-0.3,1.2-0.3h23.3c0.6,0,1.1,0.1,1.3,0.3
		c0.2,0.2,0.3,0.6,0.3,1.2v68.5c0,0.7,0.3,1,0.9,1.1c0.6,0.1,1.1-0.2,1.4-0.8L69.8,77c0.9-1,1.7-1.5,2.5-1.5h27.6
		c0.8,0,1.2,0.2,1.2,0.5c0,0.2-0.2,0.5-0.6,1.1l-21.3,28.9c-0.5,0.5-0.5,1,0,1.6l23,35.5c0.1,0.2,0.2,0.3,0.3,0.5
		c0.1,0.2,0.2,0.3,0.2,0.4c0,0.1,0.1,0.2,0.2,0.2c0,0.1,0.1,0.1,0.1,0.2c0,0.2-0.5,0.3-1.4,0.3H74.3c-0.8,0-1.6-0.5-2.5-1.5
		l-16.6-26.7c-0.3-0.4-0.7-0.6-1.3-0.6c-0.8,0-1.2,0.4-1.2,1.1v26.3c0,0.6-0.1,1-0.3,1.2c-0.2,0.2-0.6,0.3-1.3,0.3H27.9
		c-0.6,0-1.1-0.1-1.2-0.3C26.5,144,26.4,143.6,26.4,142.9z"/>
	<path class="st0" d="M90.4,109.8c0-10.7,3.5-19.4,10.4-26.1c6.9-6.8,15.7-10.2,26.5-10.2c11.6,0,20.8,3.4,27.4,10.3
		s10,16.4,10,28.6c0,2.8-0.1,4.6-0.3,5.2c-0.2,0.7-0.8,1-1.7,1h-43.1c-0.7,0-1.2,0.1-1.4,0.2c-0.2,0.2-0.3,0.5-0.3,1.1
		c0.4,2.2,2,4.1,4.8,5.6c2.8,1.5,6.4,2.3,10.6,2.3c6.8,0,13.5-1.5,20-4.5c0.1,0,0.2-0.1,0.4-0.2c0.2,0,0.3-0.1,0.4-0.2
		c0.1,0,0.2-0.1,0.2-0.1c0.4,0,0.7,0.5,0.7,1.6v14.4c0,0.3-0.4,0.8-1.3,1.6c-5.5,3.7-13.6,5.6-24.4,5.6c-10.9,0-20.1-3.5-27.6-10.5
		C94.1,128.9,90.4,120.2,90.4,109.8z M116.7,100.9c0,0.7,0.1,1.1,0.3,1.2c0.2,0.2,0.6,0.3,1.2,0.3h18.4c0.3,0.1,0.5,0.1,0.7,0.1
		c0.4,0,0.6-0.1,0.8-0.2c0.1-0.1,0.2-0.4,0.2-0.8c-0.2-2.7-1.4-4.8-3.6-6.5c-2.2-1.5-4.6-2.2-7.2-2.2c-2.6,0-5,0.8-7.1,2.3
		C118.2,96.7,117,98.6,116.7,100.9z"/>
	<path class="st0" d="M166.6,144.5v-66c0-0.6,0.1-1,0.3-1.2c0.2-0.2,0.6-0.3,1.2-0.3H193c0.7,0,1.1,0.1,1.2,0.3
		c0.2,0.2,0.3,0.6,0.3,1.2v6.2c0,0.2,0.2,0.3,0.7,0.3c0.3,0,0.5,0,0.6-0.2c6.6-6.3,13.7-9.5,21.4-9.5c14.7,0,22,8.7,22,26.2v42.9
		c0,0.6-0.1,1-0.3,1.2c-0.2,0.2-0.6,0.3-1.3,0.3h-24.8c-0.7,0-1.1-0.1-1.2-0.3c-0.2-0.2-0.3-0.6-0.3-1.2v-37.6c0-5-2.5-7.6-7.5-7.6
		c-2.6,0-4.8,0.9-6.6,2.7c-1.8,1.8-2.7,4.1-2.7,6.9v35.5c0,0.6-0.1,1-0.3,1.2c-0.2,0.2-0.6,0.3-1.2,0.3h-24.8
		c-0.7,0-1.1-0.1-1.2-0.3C166.7,145.5,166.6,145.1,166.6,144.5z"/>
	<path class="st0" d="M242.1,144.5v-66c0-0.6,0.1-1,0.3-1.2c0.2-0.2,0.6-0.3,1.3-0.3h24.8c0.7,0,1.1,0.1,1.3,0.3
		c0.2,0.2,0.3,0.6,0.3,1.2v6.2c0,0.2,0.2,0.3,0.7,0.3c0.3,0,0.5,0,0.6-0.2c6.6-6.3,13.7-9.5,21.4-9.5c14.7,0,22,8.7,22,26.2v42.9
		c0,0.6-0.1,1-0.3,1.2c-0.2,0.2-0.6,0.3-1.3,0.3h-24.8c-0.7,0-1.1-0.1-1.3-0.3c-0.2-0.2-0.3-0.6-0.3-1.2v-37.6c0-5-2.5-7.6-7.5-7.6
		c-2.6,0-4.8,0.9-6.6,2.7c-1.8,1.8-2.7,4.1-2.7,6.9v35.5c0,0.6-0.1,1-0.3,1.2c-0.2,0.2-0.6,0.3-1.3,0.3h-24.8
		c-0.7,0-1.1-0.1-1.3-0.3C242.2,145.5,242.1,145.1,242.1,144.5z"/>
	<path class="st0" d="M316.8,109.8c0-10.7,3.5-19.4,10.4-26.1c6.9-6.8,15.7-10.2,26.5-10.2c11.6,0,20.8,3.4,27.4,10.3
		c6.6,6.9,10,16.4,10,28.6c0,2.8-0.1,4.6-0.3,5.2c-0.2,0.7-0.8,1-1.7,1h-43.1c-0.7,0-1.2,0.1-1.4,0.2c-0.2,0.2-0.3,0.5-0.3,1.1
		c0.4,2.2,2,4.1,4.8,5.6c2.8,1.5,6.4,2.3,10.6,2.3c6.8,0,13.5-1.5,20-4.5c0.1,0,0.2-0.1,0.4-0.2c0.2,0,0.3-0.1,0.4-0.2
		c0.1,0,0.2-0.1,0.2-0.1c0.4,0,0.7,0.5,0.7,1.6v14.4c0,0.3-0.4,0.8-1.3,1.6c-5.5,3.7-13.6,5.6-24.4,5.6c-10.9,0-20.1-3.5-27.6-10.5
		C320.5,128.9,316.8,120.2,316.8,109.8z M343.1,100.9c0,0.7,0.1,1.1,0.3,1.2c0.2,0.2,0.6,0.3,1.2,0.3H363c0.3,0.1,0.5,0.1,0.7,0.1
		c0.4,0,0.6-0.1,0.8-0.2c0.1-0.1,0.2-0.4,0.2-0.8c-0.2-2.7-1.4-4.8-3.6-6.5c-2.2-1.5-4.6-2.2-7.2-2.2c-2.6,0-5,0.8-7.1,2.3
		C344.6,96.7,343.4,98.6,343.1,100.9z"/>
	<path class="st0" d="M391.4,95.9V77c0-0.6,0.1-1,0.3-1.2c0.2-0.2,0.6-0.3,1.2-0.3h7c0.7,0,1.1-0.1,1.3-0.3c0.2-0.2,0.3-0.6,0.3-1.3
		V54.1c0-1.1,0.5-1.9,1.5-2.4L427,41.3c0.6-0.2,1-0.3,1.1-0.3c0.5,0,0.8,0.4,0.8,1.1v31.8c0,0.7,0.1,1.2,0.3,1.3
		c0.2,0.2,0.6,0.3,1.3,0.3h9.2c0.7,0,1.1,0.1,1.3,0.3C441,76,441,76.4,441,77v19c0,0.6-0.1,1.1-0.3,1.3c-0.2,0.2-0.6,0.3-1.3,0.3
		h-9.2c-0.7,0-1.1,0.1-1.3,0.3s-0.3,0.6-0.3,1.3v43.9c0,0.6-0.1,1-0.3,1.2c-0.2,0.2-0.6,0.3-1.3,0.3H403c-0.7,0-1.1-0.1-1.3-0.3
		c-0.2-0.2-0.3-0.6-0.3-1.2V99c0-0.7-0.1-1.1-0.3-1.3c-0.2-0.2-0.6-0.3-1.3-0.3h-7c-0.7,0-1.1-0.1-1.2-0.3
		C391.5,97,391.4,96.6,391.4,95.9z"/>
	<path class="st0" d="M443.5,142.9V29.6c0-0.6,0.1-1,0.3-1.2c0.2-0.2,0.6-0.3,1.3-0.3h24.8c0.7,0,1.1,0.1,1.3,0.3
		c0.2,0.2,0.3,0.6,0.3,1.2v53.6c0,0.2,0.2,0.3,0.7,0.3c0.3,0,0.5,0,0.6-0.2c7-6.5,14.1-9.8,21.4-9.8c14.7,0,22,8.7,22,26.2v43.2
		c0,0.6-0.1,1-0.3,1.2c-0.2,0.2-0.6,0.3-1.3,0.3h-24.8c-0.7,0-1.1-0.1-1.3-0.3c-0.2-0.2-0.3-0.6-0.3-1.2v-37.6c0-5-2.5-7.6-7.5-7.6
		c-2.6,0-4.8,0.9-6.6,2.7c-1.8,1.8-2.7,4.1-2.7,6.9v35.5c0,0.6-0.1,1-0.3,1.2c-0.2,0.2-0.6,0.3-1.3,0.3H445c-0.7,0-1.1-0.1-1.3-0.3
		C443.5,144,443.5,143.6,443.5,142.9z"/>
</g>
</svg>
