<?xml version="1.0" encoding="utf-8"?>
<!-- Generator: Adobe Illustrator 19.2.1, SVG Export Plug-In . SVG Version: 6.00 Build 0)  -->
<svg version="1.1" id="Layer_1" xmlns="http://www.w3.org/2000/svg" xmlns:xlink="http://www.w3.org/1999/xlink" x="0px" y="0px"
	 viewBox="0 0 172.9 288.2" style="enable-background:new 0 0 172.9 288.2;" xml:space="preserve">
<style type="text/css">
	.st0{fill:url(#SVGID_1_);}
	.st1{fill:#969696;}
</style>
<linearGradient id="SVGID_1_" gradientUnits="userSpaceOnUse" x1="86.0888" y1="280.9118" x2="86.0888" y2="3.0509">
	<stop  offset="0" style="stop-color:#FFFFFF"/>
	<stop  offset="1" style="stop-color:#EAEAEA"/>
</linearGradient>
<path class="st0" d="M102.5,280.9H69.6c-36.3,0-66-29.7-66-66V69.1c0-36.3,29.7-66,66-66h32.9c36.3,0,66,29.7,66,66v145.9
	C168.5,251.2,138.8,280.9,102.5,280.9z"/>
<path class="st1" d="M87.6,101.2L87.6,101.2c-4.6,0-8.3-3.7-8.3-8.3V67.5c0-4.6,3.7-8.3,8.3-8.3h0c4.6,0,8.3,3.7,8.3,8.3V93
	C95.9,97.5,92.1,101.2,87.6,101.2z"/>
</svg>
