<?xml version="1.0" encoding="UTF-8"?>
<svg width="21px" height="25px" viewBox="0 0 21 25" version="1.1" xmlns="http://www.w3.org/2000/svg" xmlns:xlink="http://www.w3.org/1999/xlink">
    <!-- Generator: Sketch 49.3 (51167) - http://www.bohemiancoding.com/sketch -->
    <title>Drafting_Compass</title>
    <desc>Created with Sketch.</desc>
    <defs></defs>
    <g id="Page-1" stroke="none" stroke-width="1" fill="none" fill-rule="evenodd">
        <g id="iOS-Edge-Glyph" transform="translate(-203.000000, -2978.000000)" fill="#FFFFFF" fill-rule="nonzero">
            <path d="M223.12,3002.26 L219.11,2995 L222,2995 L222,2994 L218.56,2994 L215.84,2989.08 C216.55,2988.44 217,2987.52 217,2986.5 C217,2984.74 215.69,2983.3 214,2983.05 L214,2982 L214.5,2982 C214.78,2982 215,2981.78 215,2981.5 L215,2978.5 C215,2978.22 214.78,2978 214.5,2978 L212.5,2978 C212.22,2978 212,2978.22 212,2978.5 L212,2981.5 C212,2981.78 212.22,2982 212.5,2982 L213,2982 L213,2983.05 C211.31,2983.3 210,2984.74 210,2986.5 C210,2987.53 210.45,2988.44 211.16,2989.08 L208.44,2994 L205,2994 L205,2995 L207.89,2995 L203.88,3002.26 L204.76,3002.74 L209.04,2995 L213,2995 L213,2997 L214,2997 L214,2995 L217.97,2995 L222.25,3002.74 L223.12,3002.26 Z M214,2994 L214,2992 L213,2992 L213,2994 L209.59,2994 L212,2989.64 C212.46,2989.86 212.97,2990 213.51,2990 C214.05,2990 214.56,2989.87 215.02,2989.64 L217.43,2994 L214,2994 Z" id="Drafting_Compass"></path>
        </g>
    </g>
</svg>