<?xml version="1.0" encoding="UTF-8"?>
<svg width="25px" height="25px" viewBox="0 0 25 25" version="1.1" xmlns="http://www.w3.org/2000/svg" xmlns:xlink="http://www.w3.org/1999/xlink">
    <!-- Generator: Sketch 49.3 (51167) - http://www.bohemiancoding.com/sketch -->
    <title>Info</title>
    <desc>Created with Sketch.</desc>
    <defs></defs>
    <g id="Page-1" stroke="none" stroke-width="1" fill="none" fill-rule="evenodd">
        <g id="Desktop-HD" transform="translate(-26.000000, -436.000000)" fill="#000000" fill-rule="nonzero">
            <g id="Info" transform="translate(26.000000, 436.000000)">
                <path d="M12.5,0 C5.61,0 0,5.61 0,12.5 C0,19.39 5.61,25 12.5,25 C19.39,25 25,19.39 25,12.5 C25,5.61 19.39,0 12.5,0 Z M14,18.44 C14,18.75 13.75,19 13.44,19 L11.56,19 C11.25,19 11,18.75 11,18.44 L11,12.56 C11,12.25 11.25,12 11.56,12 L13.44,12 C13.75,12 14,12.25 14,12.56 L14,18.44 Z M12.5,10.49 C11.4,10.49 10.5,9.59 10.5,8.49 C10.5,7.39 11.4,6.49 12.5,6.49 C13.6,6.49 14.5,7.39 14.5,8.49 C14.5,9.59 13.6,10.49 12.5,10.49 Z"></path>
            </g>
        </g>
    </g>
</svg>