<?xml version="1.0" encoding="UTF-8"?>
<svg width="25px" height="21px" viewBox="0 0 25 21" version="1.1" xmlns="http://www.w3.org/2000/svg" xmlns:xlink="http://www.w3.org/1999/xlink">
    <!-- Generator: Sketch 49.3 (51167) - http://www.bohemiancoding.com/sketch -->
    <title>Video_Game_Controller</title>
    <desc>Created with Sketch.</desc>
    <defs></defs>
    <g id="Page-1" stroke="none" stroke-width="1" fill="none" fill-rule="evenodd">
        <g id="Desktop-HD" transform="translate(-26.000000, -319.000000)" fill="#000000" fill-rule="nonzero">
            <g id="Video_Game_Controller" transform="translate(25.000000, 319.000000)">
                <path d="M25.75,12.56 C25.08,8.24 23.14,3.64 20.3,3.12 C18.3,2.75 17.05,3.35 15.95,3.88 C15.32,4.18 14.71,4.46 14,4.56 L14,0 L13,0 L13,4.55 C12.29,4.46 11.69,4.18 11.07,3.88 C9.97,3.35 8.73,2.75 6.66,3.15 C3.72,3.73 1.75,8.81 1.17,13.28 C0.98,14.74 0.53,19.57 2.69,20.62 C3.22,20.88 3.75,21 4.26,21 C6.41,21 8.29,18.91 9.45,16.63 C9.64,16.26 10.02,16.01 10.38,16.01 L16.61,16.01 C16.98,16.01 17.35,16.27 17.55,16.65 C17.96,17.45 19.46,20.12 21.65,20.81 C22.56,21.1 23.45,21.01 24.32,20.54 C26.13,19.57 26.24,15.78 25.75,12.56 Z M10.5,11 L9,11 L9,12.5 C9,12.78 8.78,13 8.5,13 L7.5,13 C7.22,13 7,12.78 7,12.5 L7,11 L5.5,11 C5.22,11 5,10.78 5,10.5 L5,9.5 C5,9.22 5.22,9 5.5,9 L7,9 L7,7.5 C7,7.22 7.22,7 7.5,7 L8.5,7 C8.78,7 9,7.22 9,7.5 L9,9 L10.5,9 C10.78,9 11,9.22 11,9.5 L11,10.5 C11,10.78 10.78,11 10.5,11 Z M17,7.5 C17,7.22 17.22,7 17.5,7 L18.5,7 C18.78,7 19,7.22 19,7.5 L19,8.5 C19,8.78 18.78,9 18.5,9 L17.5,9 C17.22,9 17,8.78 17,8.5 L17,7.5 Z M16.5,11 L15.5,11 C15.22,11 15,10.78 15,10.5 L15,9.5 C15,9.22 15.22,9 15.5,9 L16.5,9 C16.78,9 17,9.22 17,9.5 L17,10.5 C17,10.78 16.78,11 16.5,11 Z M19,12.5 C19,12.78 18.78,13 18.5,13 L17.5,13 C17.22,13 17,12.78 17,12.5 L17,11.5 C17,11.22 17.22,11 17.5,11 L18.5,11 C18.78,11 19,11.22 19,11.5 L19,12.5 Z M21,10.5 C21,10.78 20.78,11 20.5,11 L19.5,11 C19.22,11 19,10.78 19,10.5 L19,9.5 C19,9.22 19.22,9 19.5,9 L20.5,9 C20.78,9 21,9.22 21,9.5 L21,10.5 Z"></path>
            </g>
        </g>
    </g>
</svg>