<?xml version="1.0" encoding="UTF-8"?>
<svg width="25px" height="21px" viewBox="0 0 25 21" version="1.1" xmlns="http://www.w3.org/2000/svg" xmlns:xlink="http://www.w3.org/1999/xlink">
    <!-- Generator: Sketch 49.3 (51167) - http://www.bohemiancoding.com/sketch -->
    <title>Video_Game_Controller</title>
    <desc>Created with Sketch.</desc>
    <defs></defs>
    <g id="Page-1" stroke="none" stroke-width="1" fill="none" fill-rule="evenodd">
        <g id="iOS-Edge-Glyph" transform="translate(-151.000000, -1256.000000)" fill="#FFFFFF" fill-rule="nonzero">
            <path d="M175.75,1268.56 C175.08,1264.24 173.14,1259.64 170.3,1259.12 C168.3,1258.75 167.05,1259.35 165.95,1259.88 C165.32,1260.18 164.71,1260.46 164,1260.56 L164,1256 L163,1256 L163,1260.55 C162.29,1260.46 161.69,1260.18 161.07,1259.88 C159.97,1259.35 158.73,1258.75 156.66,1259.15 C153.72,1259.73 151.75,1264.81 151.17,1269.28 C150.98,1270.74 150.53,1275.57 152.69,1276.62 C153.22,1276.88 153.75,1277 154.26,1277 C156.41,1277 158.29,1274.91 159.45,1272.63 C159.64,1272.26 160.02,1272.01 160.38,1272.01 L166.61,1272.01 C166.98,1272.01 167.35,1272.27 167.55,1272.65 C167.96,1273.45 169.46,1276.12 171.65,1276.81 C172.56,1277.1 173.45,1277.01 174.32,1276.54 C176.13,1275.57 176.24,1271.78 175.75,1268.56 Z M160.5,1267 L159,1267 L159,1268.5 C159,1268.78 158.78,1269 158.5,1269 L157.5,1269 C157.22,1269 157,1268.78 157,1268.5 L157,1267 L155.5,1267 C155.22,1267 155,1266.78 155,1266.5 L155,1265.5 C155,1265.22 155.22,1265 155.5,1265 L157,1265 L157,1263.5 C157,1263.22 157.22,1263 157.5,1263 L158.5,1263 C158.78,1263 159,1263.22 159,1263.5 L159,1265 L160.5,1265 C160.78,1265 161,1265.22 161,1265.5 L161,1266.5 C161,1266.78 160.78,1267 160.5,1267 Z M167,1263.5 C167,1263.22 167.22,1263 167.5,1263 L168.5,1263 C168.78,1263 169,1263.22 169,1263.5 L169,1264.5 C169,1264.78 168.78,1265 168.5,1265 L167.5,1265 C167.22,1265 167,1264.78 167,1264.5 L167,1263.5 Z M166.5,1267 L165.5,1267 C165.22,1267 165,1266.78 165,1266.5 L165,1265.5 C165,1265.22 165.22,1265 165.5,1265 L166.5,1265 C166.78,1265 167,1265.22 167,1265.5 L167,1266.5 C167,1266.78 166.78,1267 166.5,1267 Z M169,1268.5 C169,1268.78 168.78,1269 168.5,1269 L167.5,1269 C167.22,1269 167,1268.78 167,1268.5 L167,1267.5 C167,1267.22 167.22,1267 167.5,1267 L168.5,1267 C168.78,1267 169,1267.22 169,1267.5 L169,1268.5 Z M171,1266.5 C171,1266.78 170.78,1267 170.5,1267 L169.5,1267 C169.22,1267 169,1266.78 169,1266.5 L169,1265.5 C169,1265.22 169.22,1265 169.5,1265 L170.5,1265 C170.78,1265 171,1265.22 171,1265.5 L171,1266.5 Z" id="Video_Game_Controller"></path>
        </g>
    </g>
</svg>